<svg width="17" height="16" viewBox="0 0 17 16" fill="none" xmlns="http://www.w3.org/2000/svg">
<path d="M9.16669 4.66675H7.83335V7.33341H5.16669V8.66675H7.83335V11.3334H9.16669V8.66675H11.8334V7.33341H9.16669V4.66675Z" fill="#222222"/>
<path d="M8.49998 1.33325C4.82398 1.33325 1.83331 4.32392 1.83331 7.99992C1.83331 11.6759 4.82398 14.6666 8.49998 14.6666C12.176 14.6666 15.1666 11.6759 15.1666 7.99992C15.1666 4.32392 12.176 1.33325 8.49998 1.33325ZM8.49998 13.3333C5.55931 13.3333 3.16665 10.9406 3.16665 7.99992C3.16665 5.05925 5.55931 2.66659 8.49998 2.66659C11.4406 2.66659 13.8333 5.05925 13.8333 7.99992C13.8333 10.9406 11.4406 13.3333 8.49998 13.3333Z" fill="#222222"/>
</svg>
