<svg width="20" height="20" viewBox="0 0 20 20" fill="none" xmlns="http://www.w3.org/2000/svg">
<path d="M10 0C4.486 0 0 4.486 0 10C0 15.514 4.486 20 10 20C15.514 20 20 15.514 20 10C20 4.486 15.514 0 10 0ZM2 10C2 9.86664 2.00343 9.73408 2.01018 9.60237C2.0625 8.58067 3.2766 8.2766 4 9L5.29289 10.2929C5.74565 10.7456 6 11.3597 6 12C6 12.6403 6.25435 13.2544 6.70711 13.7071L8 15L8.63458 15.6346C8.86856 15.8686 9 16.1859 9 16.5168C9 17.2676 8.33618 17.8551 7.61955 17.6313C4.36844 16.6159 2 13.5819 2 10ZM17.028 13.805C16.692 14.4203 15.8742 14.5024 15.2184 14.2544C15.1394 14.2245 15.0602 14.197 14.9813 14.172C14.4547 14.0053 14 13.5523 14 13C14 11.896 13.104 11 12 11H10C8.89543 11 8 10.1046 8 9C8 8.44771 8.47453 8.02064 8.9589 7.75531C9.57914 7.41556 10 6.75663 10 6C10 5.44772 10.4477 5 11 5C12.104 5 13 4.104 13 3C13 2.80363 13.1989 2.67027 13.3767 2.75343C16.1042 4.0285 18 6.79557 18 10C18 11.3784 17.6462 12.6733 17.028 13.805Z" fill="#222222"/>
</svg>
