<svg width="32" height="32" viewBox="0 0 32 32" fill="none" xmlns="http://www.w3.org/2000/svg">
<path d="M15.9993 2.66663C8.64735 2.66663 2.66602 8.64796 2.66602 16C2.66602 23.352 8.64735 29.3333 15.9993 29.3333C23.3513 29.3333 29.3327 23.352 29.3327 16C29.3327 8.64796 23.3513 2.66663 15.9993 2.66663ZM17.3327 24H14.666V21.3333H17.3327V24ZM18.634 17.4866C18.3727 17.6973 18.1207 17.8986 17.9207 18.0986C17.3767 18.6413 17.334 19.1346 17.3327 19.156V19.3333H14.666V19.1106C14.666 18.9533 14.7047 17.5413 16.034 16.212C16.294 15.952 16.6167 15.688 16.9553 15.4133C17.934 14.62 18.5767 14.0413 18.5767 13.244C18.5612 12.5704 18.2827 11.9296 17.8008 11.4588C17.3188 10.9879 16.6718 10.7244 15.998 10.7246C15.3243 10.7248 14.6774 10.9886 14.1957 11.4597C13.714 11.9308 13.4358 12.5717 13.4207 13.2453H10.754C10.754 10.3533 13.1073 7.99996 15.9993 7.99996C18.8913 7.99996 21.2447 10.3533 21.2447 13.2453C21.2447 15.3746 19.6727 16.6453 18.634 17.4866Z" fill="#7038B7"/>
</svg>
