<svg width="166" height="56" viewBox="0 0 166 56" fill="none" xmlns="http://www.w3.org/2000/svg">
<rect x="0.5" y="0.5" width="165" height="54.5" rx="5.5" fill="white"/>
<rect x="0.5" y="0.5" width="165" height="54.5" rx="5.5" stroke="url(#paint0_linear_18541_3007)"/>
<rect x="0.5" y="0.5" width="165" height="54.5" rx="5.5" stroke="white" stroke-opacity="0.12"/>
<path d="M42.9513 18.4185L41.4545 19.2831V19.2835H41.4541L39.9572 20.1477V20.1481H39.9568L38.4599 19.2835H38.4595L36.9626 18.4185H36.9622L35.4653 17.5539H35.4649L33.968 16.6889H33.9676L32.4707 15.8243H32.4703L30.9735 14.9593L24.9843 18.4185L23.487 19.2835L21.9897 20.1481L20.4924 19.2835L18.9951 18.4185L29.4762 12.365L30.9735 11.5L32.4703 12.365H32.4707L33.9676 13.2296H33.968L35.4649 14.0947H35.4653L36.9622 14.9593H36.9626L38.4595 15.8243H38.4599L39.9568 16.6889H39.9572L41.4541 17.5539H41.4545L42.9513 18.4185Z" fill="url(#paint1_linear_18541_3007)"/>
<path d="M38.46 22.743V26.2027L35.4663 24.4726H35.465L33.9681 23.6076H33.9677L32.4708 22.743H32.4704L30.9735 21.878L27.979 23.6076L24.9844 21.878L29.4763 19.2837L30.9735 18.4187L32.4704 19.2837H32.4708L33.9677 20.1483H33.9681L35.465 21.0134H35.4654L36.9623 21.878H36.9627L38.46 22.743Z" fill="url(#paint2_linear_18541_3007)"/>
<path d="M38.46 31.392V34.8512H38.4595L36.9627 35.7158H36.9622L35.4654 36.5808H35.4649L33.9681 37.4454H33.9676L32.4708 38.3105H32.4703L30.9735 39.175L21.9897 33.9862V23.608L23.4866 24.4726L23.487 24.473L24.9839 25.3376H24.9843V32.2565L26.4816 33.1216L30.9735 35.7158L32.4703 34.8512H32.4708L33.9676 33.9862H33.9681L35.4649 33.1216H35.4654L36.9622 32.2565H36.9627L38.46 31.392Z" fill="url(#paint3_linear_18541_3007)"/>
<path d="M45.9464 20.1483V37.445H45.9459L44.4491 38.31H44.4486L42.9518 39.1746H42.9513L41.4545 40.0396H41.4541L39.9572 40.9042H39.9568L38.4599 41.7693H38.4595L36.9626 42.6339H36.9622L35.4653 43.4989V40.0396L36.9622 39.1746H36.9626L38.4595 38.31H38.4599L39.9568 37.445H39.9572L41.4541 36.5804H41.4545L42.9513 35.7154H42.9518V23.608L41.4545 24.4726L39.9572 25.3372V21.8775L41.4541 21.0133H41.4545V21.0129L42.9513 20.1483H42.9518V20.1478L44.4486 19.2837H44.4491L45.9464 20.1483Z" fill="url(#paint4_linear_18541_3007)"/>
<path d="M38.4589 22.7427L36.9621 23.6073L35.4648 24.4723L33.9675 25.3369L32.4707 26.2019L30.9729 27.0665L29.4756 26.2019L17.4973 19.2834L16 20.148V37.4447L18.9946 39.1757L20.4919 40.0407L26.481 43.5V40.0394L24.9838 39.1744L18.9946 35.7151V25.3374V23.6064L20.4914 24.471L21.9883 25.3351L23.4851 26.1997L24.9838 27.067L26.4806 27.932L27.9774 28.7966L29.4747 29.6616V36.4523L30.9729 37.3196L32.4698 36.4545V29.6639L33.9671 28.7988L35.4643 27.9347L36.9621 27.067L38.4594 26.2028V22.7427H38.4589Z" fill="url(#paint5_linear_18541_3007)"/>
<path d="M61.408 24.692C60.6507 24.692 59.9467 24.5533 59.296 24.276C58.656 23.9987 58.1013 23.6147 57.632 23.124C57.1733 22.6227 56.8373 22.0413 56.624 21.38L58.432 20.596C58.72 21.2787 59.136 21.8173 59.68 22.212C60.224 22.596 60.8373 22.788 61.52 22.788C62.0853 22.788 62.5387 22.6547 62.88 22.388C63.232 22.1213 63.408 21.7693 63.408 21.332C63.408 20.98 63.3013 20.692 63.088 20.468C62.8853 20.244 62.576 20.0627 62.16 19.924L59.872 19.188C58.944 18.8893 58.2453 18.4573 57.776 17.892C57.3067 17.316 57.072 16.6387 57.072 15.86C57.072 15.1773 57.2373 14.5747 57.568 14.052C57.9093 13.5293 58.3787 13.124 58.976 12.836C59.584 12.5373 60.2773 12.388 61.056 12.388C62.1333 12.388 63.0667 12.66 63.856 13.204C64.656 13.748 65.216 14.468 65.536 15.364L63.744 16.164C63.5093 15.5667 63.1573 15.108 62.688 14.788C62.2187 14.4573 61.6747 14.292 61.056 14.292C60.5013 14.292 60.0533 14.4307 59.712 14.708C59.3813 14.9747 59.216 15.3267 59.216 15.764C59.216 16.0947 59.3227 16.388 59.536 16.644C59.76 16.8893 60.0853 17.0813 60.512 17.22L62.704 17.908C64.6027 18.516 65.552 19.6147 65.552 21.204C65.552 21.8867 65.376 22.4893 65.024 23.012C64.672 23.5347 64.1867 23.9453 63.568 24.244C62.9493 24.5427 62.2293 24.692 61.408 24.692ZM67.5114 24.5V12.58H75.4314V14.5H69.6874V17.556H75.1114V19.476H69.6874V22.58H75.4314V24.5H67.5114ZM82.899 24.692C82.0243 24.692 81.2083 24.5373 80.451 24.228C79.6937 23.9187 79.0323 23.4867 78.467 22.932C77.9017 22.3773 77.459 21.7267 77.139 20.98C76.8297 20.2227 76.675 19.4067 76.675 18.532C76.675 17.6467 76.8297 16.8307 77.139 16.084C77.459 15.3373 77.8963 14.692 78.451 14.148C79.0163 13.5933 79.6777 13.1613 80.435 12.852C81.1923 12.5427 82.0137 12.388 82.899 12.388C83.7843 12.388 84.6057 12.5427 85.363 12.852C86.1203 13.1613 86.7817 13.5933 87.347 14.148C87.9123 14.692 88.3497 15.3373 88.659 16.084C88.979 16.8307 89.139 17.6467 89.139 18.532C89.139 19.4067 88.979 20.2227 88.659 20.98C88.3497 21.7267 87.9123 22.3773 87.347 22.932C86.7817 23.4867 86.1203 23.9187 85.363 24.228C84.6057 24.5373 83.7843 24.692 82.899 24.692ZM82.899 22.708C83.6777 22.708 84.371 22.5267 84.979 22.164C85.587 21.8013 86.067 21.3053 86.419 20.676C86.771 20.0467 86.947 19.332 86.947 18.532C86.947 17.732 86.771 17.0227 86.419 16.404C86.067 15.7747 85.587 15.2787 84.979 14.916C84.371 14.5533 83.6777 14.372 82.899 14.372C82.131 14.372 81.4377 14.5533 80.819 14.916C80.211 15.2787 79.731 15.7747 79.379 16.404C79.027 17.0227 78.851 17.732 78.851 18.532C78.851 19.332 79.027 20.0467 79.379 20.676C79.731 21.3053 80.211 21.8013 80.819 22.164C81.4377 22.5267 82.131 22.708 82.899 22.708ZM96.0296 24.5V14.5H92.9416V12.58H101.262V14.5H98.2216V24.5H96.0296ZM105.545 24.692C104.691 24.692 103.913 24.4947 103.209 24.1C102.515 23.7053 101.961 23.1667 101.545 22.484C101.139 21.8013 100.937 21.0227 100.937 20.148C100.937 19.2733 101.139 18.4947 101.545 17.812C101.961 17.1293 102.515 16.5907 103.209 16.196C103.902 15.8013 104.681 15.604 105.545 15.604C106.398 15.604 107.171 15.8013 107.865 16.196C108.558 16.5907 109.107 17.1293 109.513 17.812C109.929 18.4947 110.137 19.2733 110.137 20.148C110.137 21.0227 109.929 21.8067 109.513 22.5C109.097 23.1827 108.542 23.7213 107.849 24.116C107.155 24.5 106.387 24.692 105.545 24.692ZM105.545 22.772C106.014 22.772 106.425 22.66 106.777 22.436C107.139 22.212 107.422 21.9027 107.625 21.508C107.838 21.1027 107.945 20.6493 107.945 20.148C107.945 19.6467 107.838 19.1987 107.625 18.804C107.422 18.4093 107.139 18.1 106.777 17.876C106.425 17.6413 106.014 17.524 105.545 17.524C105.075 17.524 104.654 17.6413 104.281 17.876C103.918 18.1 103.63 18.4093 103.417 18.804C103.214 19.1987 103.113 19.6467 103.113 20.148C103.113 20.6493 103.214 21.1027 103.417 21.508C103.63 21.9027 103.918 22.212 104.281 22.436C104.654 22.66 105.075 22.772 105.545 22.772ZM115.982 24.692C115.129 24.692 114.35 24.4947 113.646 24.1C112.953 23.7053 112.398 23.1667 111.982 22.484C111.577 21.8013 111.374 21.0227 111.374 20.148C111.374 19.2733 111.577 18.4947 111.982 17.812C112.398 17.1293 112.953 16.5907 113.646 16.196C114.339 15.8013 115.118 15.604 115.982 15.604C116.835 15.604 117.609 15.8013 118.302 16.196C118.995 16.5907 119.545 17.1293 119.95 17.812C120.366 18.4947 120.574 19.2733 120.574 20.148C120.574 21.0227 120.366 21.8067 119.95 22.5C119.534 23.1827 118.979 23.7213 118.286 24.116C117.593 24.5 116.825 24.692 115.982 24.692ZM115.982 22.772C116.451 22.772 116.862 22.66 117.214 22.436C117.577 22.212 117.859 21.9027 118.062 21.508C118.275 21.1027 118.382 20.6493 118.382 20.148C118.382 19.6467 118.275 19.1987 118.062 18.804C117.859 18.4093 117.577 18.1 117.214 17.876C116.862 17.6413 116.451 17.524 115.982 17.524C115.513 17.524 115.091 17.6413 114.718 17.876C114.355 18.1 114.067 18.4093 113.854 18.804C113.651 19.1987 113.55 19.6467 113.55 20.148C113.55 20.6493 113.651 21.1027 113.854 21.508C114.067 21.9027 114.355 22.212 114.718 22.436C115.091 22.66 115.513 22.772 115.982 22.772ZM122.164 24.5V12.58H124.26V24.5H122.164ZM129.507 24.692C128.579 24.692 127.768 24.468 127.075 24.02C126.392 23.572 125.923 22.9747 125.667 22.228L127.235 21.476C127.469 21.9667 127.784 22.3507 128.179 22.628C128.573 22.9053 129.016 23.044 129.507 23.044C129.88 23.044 130.179 22.964 130.403 22.804C130.637 22.6333 130.755 22.404 130.755 22.116C130.755 21.8707 130.653 21.6787 130.451 21.54C130.259 21.3907 130.024 21.2787 129.747 21.204L128.323 20.804C127.587 20.5907 127.027 20.2653 126.643 19.828C126.269 19.3907 126.083 18.8733 126.083 18.276C126.083 17.7427 126.216 17.2787 126.483 16.884C126.76 16.4787 127.139 16.164 127.619 15.94C128.109 15.716 128.669 15.604 129.299 15.604C130.12 15.604 130.845 15.8067 131.475 16.212C132.104 16.6067 132.552 17.156 132.819 17.86L131.219 18.612C131.08 18.2173 130.829 17.9027 130.467 17.668C130.115 17.4333 129.72 17.316 129.283 17.316C128.931 17.316 128.653 17.396 128.451 17.556C128.248 17.716 128.147 17.924 128.147 18.18C128.147 18.4253 128.243 18.6173 128.435 18.756C128.627 18.8947 128.872 19.0067 129.171 19.092L130.563 19.508C131.288 19.7107 131.843 20.0307 132.227 20.468C132.611 20.9053 132.803 21.428 132.803 22.036C132.803 22.5587 132.664 23.0227 132.387 23.428C132.109 23.8227 131.725 24.132 131.235 24.356C130.744 24.58 130.168 24.692 129.507 24.692Z" fill="#252A38"/>
<path d="M60.416 40.692C59.216 40.692 58.256 40.296 57.512 39.48C56.756 38.688 56.384 37.596 56.384 36.228C56.384 34.872 56.756 33.792 57.5 32.976C58.244 32.172 59.216 31.764 60.416 31.764C61.352 31.764 62.168 32.016 62.852 32.52C63.524 33.036 63.968 33.792 64.16 34.788H62.864C62.696 34.164 62.408 33.696 61.976 33.384C61.544 33.072 61.028 32.904 60.416 32.904C59.588 32.904 58.928 33.204 58.448 33.804C57.956 34.404 57.716 35.208 57.716 36.228C57.716 37.26 57.956 38.064 58.448 38.664C58.928 39.264 59.588 39.552 60.416 39.552C61.028 39.552 61.58 39.372 62.072 38.988C62.54 38.616 62.828 38.064 62.924 37.344H64.208C64.1 38.412 63.692 39.24 62.972 39.816C62.252 40.404 61.4 40.692 60.416 40.692ZM68.311 34.164C68.983 34.164 69.523 34.356 69.907 34.74C70.291 35.124 70.483 35.652 70.483 36.348V40.5H69.283V36.516C69.283 35.652 68.839 35.22 67.975 35.22C67.567 35.22 67.207 35.376 66.895 35.676C66.571 35.988 66.415 36.432 66.415 37.008V40.5H65.215V31.956H66.415V35.16C66.883 34.5 67.519 34.164 68.311 34.164ZM74.9201 34.212C75.0881 34.212 75.2081 34.224 75.2681 34.224V35.364H74.9681C74.3441 35.364 73.8761 35.52 73.5401 35.82C73.2041 36.132 73.0361 36.564 73.0361 37.14V40.5H71.8361V34.308H72.9881V35.412C73.3721 34.62 74.0201 34.212 74.9201 34.212ZM80.8127 39.756C80.2367 40.356 79.5047 40.644 78.5927 40.644C77.6807 40.644 76.9367 40.356 76.3727 39.756C75.7967 39.168 75.5207 38.388 75.5207 37.404C75.5207 36.42 75.7967 35.64 76.3727 35.04C76.9247 34.464 77.6687 34.164 78.5927 34.164C79.5047 34.164 80.2487 34.464 80.8127 35.04C81.3647 35.628 81.6527 36.42 81.6527 37.404C81.6527 38.388 81.3647 39.18 80.8127 39.756ZM78.5927 39.612C79.1447 39.612 79.5887 39.42 79.9127 39.024C80.2367 38.64 80.4047 38.1 80.4047 37.404C80.4047 36.72 80.2367 36.18 79.9127 35.784C79.5887 35.4 79.1447 35.196 78.5927 35.196C78.0287 35.196 77.5847 35.4 77.2607 35.784C76.9247 36.18 76.7687 36.72 76.7687 37.404C76.7687 38.1 76.9247 38.64 77.2607 39.024C77.5847 39.42 78.0287 39.612 78.5927 39.612ZM89.4791 34.164C90.1511 34.164 90.6671 34.368 91.0511 34.764C91.4231 35.16 91.6151 35.688 91.6151 36.348V40.5H90.4031V36.504C90.4031 35.652 90.0071 35.22 89.2151 35.22C88.7831 35.22 88.4351 35.388 88.1711 35.712C87.8951 36.036 87.7631 36.504 87.7631 37.104V40.5H86.5631V36.504C86.5631 35.652 86.1551 35.22 85.3631 35.22C84.9311 35.22 84.5831 35.388 84.3191 35.712C84.0431 36.048 83.9111 36.504 83.9111 37.104V40.5H82.7111V34.308H83.8631V35.232C84.2831 34.524 84.8831 34.164 85.6511 34.164C86.5871 34.164 87.2231 34.56 87.5591 35.328C87.9911 34.56 88.6391 34.164 89.4791 34.164ZM94.1653 33.432H92.9413V32.148H94.1653V33.432ZM94.1533 40.5H92.9533V34.308H94.1533V40.5ZM99.5642 37.8V34.308H100.764V40.5H99.6122V39.576C99.1322 40.296 98.4842 40.644 97.6682 40.644C96.9842 40.644 96.4562 40.452 96.0722 40.068C95.6882 39.684 95.4962 39.156 95.4962 38.46V34.308H96.6962V38.292C96.6962 39.156 97.1282 39.588 98.0042 39.588C98.4362 39.588 98.8082 39.432 99.1082 39.12C99.4082 38.808 99.5642 38.364 99.5642 37.8ZM108.885 34.164C109.557 34.164 110.073 34.368 110.457 34.764C110.829 35.16 111.021 35.688 111.021 36.348V40.5H109.809V36.504C109.809 35.652 109.413 35.22 108.621 35.22C108.189 35.22 107.841 35.388 107.577 35.712C107.301 36.036 107.169 36.504 107.169 37.104V40.5H105.969V36.504C105.969 35.652 105.561 35.22 104.769 35.22C104.337 35.22 103.989 35.388 103.725 35.712C103.449 36.048 103.317 36.504 103.317 37.104V40.5H102.117V34.308H103.269V35.232C103.689 34.524 104.289 34.164 105.057 34.164C105.993 34.164 106.629 34.56 106.965 35.328C107.397 34.56 108.045 34.164 108.885 34.164ZM115.648 37.644H112.132V36.6H115.648V37.644ZM119.982 34.164C120.846 34.164 121.53 34.464 122.046 35.04C122.55 35.628 122.814 36.42 122.814 37.404C122.814 38.388 122.55 39.18 122.046 39.756C121.518 40.356 120.834 40.644 119.982 40.644C119.07 40.644 118.374 40.284 117.918 39.564V40.5H116.766V31.956H117.966V35.172C118.422 34.5 119.094 34.164 119.982 34.164ZM118.434 39.024C118.746 39.42 119.19 39.612 119.754 39.612C120.306 39.612 120.75 39.42 121.086 39.012C121.398 38.628 121.566 38.076 121.566 37.356C121.566 36.672 121.398 36.144 121.086 35.76C120.762 35.388 120.318 35.196 119.754 35.196C119.202 35.196 118.758 35.388 118.434 35.772C118.098 36.18 117.942 36.72 117.942 37.404C117.942 38.1 118.098 38.64 118.434 39.024ZM129.102 39.576H129.438V40.5C129.258 40.524 129.066 40.536 128.85 40.536C128.466 40.536 128.178 40.476 127.986 40.332C127.794 40.188 127.686 39.972 127.65 39.66C127.23 40.32 126.558 40.644 125.634 40.644C124.95 40.644 124.41 40.488 124.014 40.164C123.618 39.84 123.426 39.384 123.426 38.808C123.426 37.692 124.194 37.056 125.754 36.888L126.666 36.792C126.978 36.756 127.218 36.672 127.362 36.552C127.506 36.432 127.59 36.252 127.59 36.012C127.59 35.7 127.482 35.484 127.29 35.34C127.098 35.196 126.774 35.124 126.318 35.124C125.814 35.124 125.466 35.208 125.25 35.376C125.034 35.544 124.902 35.832 124.878 36.24H123.69C123.774 34.86 124.65 34.164 126.318 34.164C127.95 34.164 128.766 34.776 128.766 35.988V39.264C128.766 39.48 128.874 39.576 129.102 39.576ZM125.814 39.708C126.318 39.708 126.75 39.564 127.086 39.276C127.422 38.988 127.59 38.58 127.59 38.052V37.404C127.434 37.536 127.182 37.62 126.822 37.656L125.958 37.752C125.49 37.812 125.154 37.92 124.962 38.088C124.758 38.256 124.662 38.484 124.662 38.772C124.662 39.072 124.758 39.3 124.95 39.468C125.142 39.636 125.43 39.708 125.814 39.708ZM132.546 40.656C130.818 40.656 129.918 39.948 129.834 38.532H131.034C131.082 38.964 131.214 39.276 131.454 39.444C131.682 39.624 132.054 39.708 132.558 39.708C133.47 39.708 133.926 39.42 133.926 38.844C133.926 38.604 133.83 38.412 133.638 38.268C133.446 38.136 133.098 38.028 132.606 37.932L131.97 37.812C130.65 37.572 130.002 36.96 130.002 35.964C130.002 35.412 130.206 34.98 130.638 34.656C131.058 34.332 131.646 34.164 132.39 34.164C134.094 34.164 134.958 34.86 135.006 36.24H133.842C133.818 35.832 133.686 35.532 133.458 35.364C133.218 35.196 132.87 35.1 132.39 35.1C132.006 35.1 131.706 35.172 131.502 35.316C131.286 35.46 131.19 35.664 131.19 35.928C131.19 36.168 131.274 36.36 131.466 36.492C131.646 36.624 131.934 36.732 132.342 36.804L132.99 36.912C133.746 37.056 134.298 37.272 134.634 37.56C134.97 37.848 135.138 38.256 135.138 38.76C135.138 39.36 134.91 39.828 134.454 40.164C133.998 40.5 133.362 40.656 132.546 40.656ZM141.623 37.452V37.8H136.955C137.003 38.412 137.183 38.868 137.495 39.18C137.795 39.492 138.203 39.636 138.731 39.636C139.511 39.636 140.027 39.3 140.267 38.604H141.479C141.311 39.24 140.975 39.744 140.495 40.104C140.015 40.464 139.415 40.644 138.707 40.644C137.819 40.644 137.099 40.356 136.559 39.756C136.007 39.168 135.743 38.388 135.743 37.404C135.743 36.432 136.007 35.652 136.559 35.052C137.099 34.464 137.807 34.164 138.683 34.164C139.595 34.164 140.315 34.476 140.843 35.088C141.359 35.712 141.623 36.492 141.623 37.452ZM138.683 35.172C138.203 35.172 137.819 35.316 137.519 35.604C137.219 35.892 137.039 36.312 136.967 36.852H140.387C140.327 36.348 140.147 35.952 139.847 35.64C139.547 35.328 139.163 35.172 138.683 35.172ZM147.236 35.148V31.956H148.436V40.5H147.284V39.588C146.816 40.296 146.132 40.644 145.232 40.644C144.368 40.644 143.672 40.356 143.168 39.768C142.652 39.192 142.4 38.4 142.4 37.404C142.4 36.42 142.652 35.628 143.168 35.04C143.672 34.464 144.368 34.164 145.232 34.164C146.096 34.164 146.768 34.5 147.236 35.148ZM144.14 39.048C144.464 39.432 144.908 39.612 145.46 39.612C146.024 39.612 146.468 39.42 146.792 39.024C147.104 38.652 147.272 38.112 147.272 37.404C147.272 36.708 147.104 36.168 146.792 35.772C146.468 35.388 146.024 35.196 145.46 35.196C144.908 35.196 144.464 35.4 144.14 35.796C143.804 36.204 143.648 36.756 143.648 37.452C143.648 38.148 143.804 38.676 144.14 39.048Z" fill="url(#paint6_linear_18541_3007)"/>
<defs>
<linearGradient id="paint0_linear_18541_3007" x1="83" y1="0" x2="83" y2="55.5" gradientUnits="userSpaceOnUse">
<stop stop-color="#6E36E7"/>
<stop offset="0.45" stop-color="#4958ED"/>
<stop offset="1" stop-color="#1F81F5"/>
</linearGradient>
<linearGradient id="paint1_linear_18541_3007" x1="30.9732" y1="11.5" x2="30.9732" y2="20.1481" gradientUnits="userSpaceOnUse">
<stop stop-color="#6E36E7"/>
<stop offset="0.45" stop-color="#4958ED"/>
<stop offset="1" stop-color="#1F81F5"/>
</linearGradient>
<linearGradient id="paint2_linear_18541_3007" x1="31.7222" y1="18.4187" x2="31.7222" y2="26.2027" gradientUnits="userSpaceOnUse">
<stop stop-color="#6E36E7"/>
<stop offset="0.45" stop-color="#4958ED"/>
<stop offset="1" stop-color="#1F81F5"/>
</linearGradient>
<linearGradient id="paint3_linear_18541_3007" x1="30.2249" y1="23.608" x2="30.2249" y2="39.175" gradientUnits="userSpaceOnUse">
<stop stop-color="#6E36E7"/>
<stop offset="0.45" stop-color="#4958ED"/>
<stop offset="1" stop-color="#1F81F5"/>
</linearGradient>
<linearGradient id="paint4_linear_18541_3007" x1="40.7059" y1="19.2837" x2="40.7059" y2="43.4989" gradientUnits="userSpaceOnUse">
<stop stop-color="#6E36E7"/>
<stop offset="0.45" stop-color="#4958ED"/>
<stop offset="1" stop-color="#1F81F5"/>
</linearGradient>
<linearGradient id="paint5_linear_18541_3007" x1="27.2297" y1="19.2834" x2="27.2297" y2="43.5" gradientUnits="userSpaceOnUse">
<stop stop-color="#6E36E7"/>
<stop offset="0.45" stop-color="#4958ED"/>
<stop offset="1" stop-color="#1F81F5"/>
</linearGradient>
<linearGradient id="paint6_linear_18541_3007" x1="103" y1="32" x2="103" y2="42.5" gradientUnits="userSpaceOnUse">
<stop stop-color="#6E36E7"/>
<stop offset="0.45" stop-color="#4958ED"/>
<stop offset="1" stop-color="#1F81F5"/>
</linearGradient>
</defs>
</svg>
