<svg width="24" height="24" viewBox="0 0 24 24" fill="none" xmlns="http://www.w3.org/2000/svg">
<rect width="24" height="24" rx="4" fill="#D3F0E4"/>
<path d="M12 10.6667C12.7674 10.6667 13.3334 10.1013 13.3334 9.33333C13.3334 8.56533 12.7674 8 12 8C11.2334 8 10.6667 8.56533 10.6667 9.33333C10.6667 10.1013 11.2334 10.6667 12 10.6667ZM12 11.3333C10.5274 11.3333 9.33337 12.408 9.33337 13.7333V13.9907H14.6667V13.7333C14.6667 12.408 13.4727 11.3333 12 11.3333Z" fill="#358874"/>
<path d="M16.6667 5.33325H7.33333C6.598 5.33325 6 5.93125 6 6.66659V15.3333C6 16.0686 6.598 16.6666 7.33333 16.6666H10L12 18.6666L14 16.6666H16.6667C17.402 16.6666 18 16.0686 18 15.3333V6.66659C18 5.93125 17.402 5.33325 16.6667 5.33325ZM13.3333 15.3333L12 16.6666L10.6667 15.3333H7.33333V6.66659H16.6667L16.668 15.3333H13.3333Z" fill="#358874"/>
</svg>
