<svg width="25" height="24" viewBox="0 0 25 24" fill="none" xmlns="http://www.w3.org/2000/svg">
<rect x="0.5" width="24" height="24" rx="4" fill="#D3F0E4"/>
<path d="M10.1433 11.5287C10.8986 10.7734 12.216 10.7734 12.9713 11.5287L13.4426 12L14.3853 11.0574L13.914 10.586C13.2853 9.95671 12.448 9.60938 11.5573 9.60938C10.6666 9.60938 9.82931 9.95671 9.20064 10.586L7.78597 12C7.16217 12.6259 6.81189 13.4734 6.81189 14.357C6.81189 15.2407 7.16217 16.0882 7.78597 16.714C8.09522 17.0237 8.46262 17.2693 8.86705 17.4365C9.27149 17.6038 9.70499 17.6895 10.1426 17.6887C10.5804 17.6896 11.0141 17.604 11.4186 17.4367C11.8232 17.2694 12.1907 17.0238 12.5 16.714L12.9713 16.2427L12.0286 15.3L11.5573 15.7714C11.1816 16.1454 10.6731 16.3554 10.143 16.3554C9.61286 16.3554 9.10433 16.1454 8.72864 15.7714C8.35431 15.3959 8.14411 14.8873 8.14411 14.357C8.14411 13.8268 8.35431 13.3182 8.72864 12.9427L10.1433 11.5287Z" fill="#358874"/>
<path d="M12.5 7.28591L12.0286 7.75725L12.9713 8.69991L13.4426 8.22858C13.8183 7.85457 14.3268 7.6446 14.857 7.6446C15.3871 7.6446 15.8956 7.85457 16.2713 8.22858C16.6456 8.60409 16.8558 9.11269 16.8558 9.64291C16.8558 10.1731 16.6456 10.6817 16.2713 11.0572L14.8566 12.4712C14.1013 13.2266 12.784 13.2266 12.0286 12.4712L11.5573 11.9999L10.6146 12.9426L11.086 13.4139C11.7146 14.0432 12.552 14.3906 13.4426 14.3906C14.3333 14.3906 15.1706 14.0432 15.7993 13.4139L17.214 11.9999C17.8378 11.3741 18.188 10.5265 18.188 9.64291C18.188 8.7593 17.8378 7.91172 17.214 7.28591C16.5883 6.66178 15.7407 6.31128 14.857 6.31128C13.9732 6.31128 13.1256 6.66178 12.5 7.28591Z" fill="#358874"/>
</svg>
