<svg width="25" height="24" viewBox="0 0 25 24" fill="none" xmlns="http://www.w3.org/2000/svg">
<rect x="0.5" width="24" height="24" rx="4" fill="#D3F0E4"/>
<path d="M12.3067 15.9933C11.2805 15.9447 10.3123 15.5028 9.60346 14.7591C8.89458 14.0155 8.49941 13.0273 8.50004 11.9999C8.50004 9.79325 10.2934 7.99992 12.5 7.99992C14.6467 7.99992 16.3934 9.68658 16.4934 11.8066L15.0934 11.3866C14.9844 10.9244 14.754 10.4998 14.4259 10.1565C14.0979 9.81323 13.6841 9.56379 13.2274 9.43397C12.7707 9.30416 12.2876 9.29868 11.828 9.4181C11.3685 9.53752 10.9491 9.77751 10.6134 10.1133C10.2776 10.449 10.0376 10.8683 9.91822 11.3279C9.7988 11.7874 9.80428 12.2706 9.9341 12.7273C10.0639 13.184 10.3133 13.5978 10.6566 13.9258C10.9999 14.2539 11.4246 14.4843 11.8867 14.5933L12.3067 15.9933ZM19.1667 11.9999C19.1667 12.1999 19.16 12.3999 19.14 12.5999L17.8267 12.2066C17.8334 12.1399 17.8334 12.0666 17.8334 11.9999C17.8334 9.05325 15.4467 6.66659 12.5 6.66659C9.55337 6.66659 7.16671 9.05325 7.16671 11.9999C7.16671 14.9466 9.55337 17.3333 12.5 17.3333C12.5667 17.3333 12.64 17.3333 12.7067 17.3266L13.1 18.6399C12.9 18.6599 12.7 18.6666 12.5 18.6666C8.82004 18.6666 5.83337 15.6799 5.83337 11.9999C5.83337 8.31992 8.82004 5.33325 12.5 5.33325C16.18 5.33325 19.1667 8.31992 19.1667 11.9999ZM16.6534 14.8399L19.1667 13.9999L12.5 11.9999L14.5 18.6666L15.34 16.1533L18.1867 18.9999L19.5067 17.6799L16.6534 14.8399Z" fill="#358874"/>
</svg>
