<svg width="24" height="24" viewBox="0 0 24 24" fill="none" xmlns="http://www.w3.org/2000/svg">
<rect width="24" height="24" rx="4" fill="#D3F0E4"/>
<path d="M15.0693 11.3654C15.4754 10.6735 15.6507 9.87027 15.57 9.07206C15.4507 7.88273 14.7867 6.83139 13.7013 6.11206L12.9647 7.22273C13.7107 7.71739 14.1647 8.42206 14.2433 9.20539C14.2796 9.56946 14.2343 9.93703 14.1107 10.2814C13.987 10.6257 13.7882 10.9382 13.5287 11.1961L12.734 11.9907L13.8127 12.3074C16.634 13.1341 16.6667 15.9714 16.6667 16.0001H18C18 14.8074 17.3627 12.4767 15.0693 11.3654Z" fill="#358874"/>
<path d="M10.3334 12C11.804 12 13 10.804 13 9.33329C13 7.86263 11.804 6.66663 10.3334 6.66663C8.86271 6.66663 7.66671 7.86263 7.66671 9.33329C7.66671 10.804 8.86271 12 10.3334 12ZM10.3334 7.99996C11.0687 7.99996 11.6667 8.59796 11.6667 9.33329C11.6667 10.0686 11.0687 10.6666 10.3334 10.6666C9.59804 10.6666 9.00004 10.0686 9.00004 9.33329C9.00004 8.59796 9.59804 7.99996 10.3334 7.99996ZM11.3334 12.6666H9.33337C7.12737 12.6666 5.33337 14.4606 5.33337 16.6666V17.3333H6.66671V16.6666C6.66671 15.196 7.86271 14 9.33337 14H11.3334C12.804 14 14 15.196 14 16.6666V17.3333H15.3334V16.6666C15.3334 14.4606 13.5394 12.6666 11.3334 12.6666Z" fill="#358874"/>
</svg>
