<svg width="123" height="210" viewBox="0 0 123 210" fill="none" xmlns="http://www.w3.org/2000/svg">
<g opacity="0.1">
<path d="M117.231 16.2326C116.467 15.4682 115.545 15.0762 114.467 15.0762H83.1066C82.0286 15.0762 81.1074 15.4682 80.343 16.2326C79.5785 16.997 79.1865 17.9182 79.1865 18.9963V42.5169C79.1865 43.5949 79.5785 44.5161 80.343 45.2805C81.1074 46.045 82.0286 46.437 83.1066 46.437H114.467C115.545 46.437 116.467 46.045 117.231 45.2805C117.996 44.5161 118.388 43.5949 118.388 42.5169V18.9963C118.388 17.9182 117.996 16.997 117.231 16.2326ZM114.467 42.5169H83.1066V22.9164H114.467V42.5169Z" fill="white"/>
<path d="M108.588 24.8765H92.9072V28.7966H108.588V24.8765Z" fill="white"/>
<path d="M88.9874 28.7966C90.0699 28.7966 90.9474 27.919 90.9474 26.8365C90.9474 25.754 90.0699 24.8765 88.9874 24.8765C87.9049 24.8765 87.0273 25.754 87.0273 26.8365C87.0273 27.919 87.9049 28.7966 88.9874 28.7966Z" fill="white"/>
<path d="M110.548 30.7566H92.9072V34.6767H110.548V30.7566Z" fill="white"/>
<path d="M88.9874 34.6767C90.0699 34.6767 90.9474 33.7991 90.9474 32.7166C90.9474 31.6341 90.0699 30.7566 88.9874 30.7566C87.9049 30.7566 87.0273 31.6341 87.0273 32.7166C87.0273 33.7991 87.9049 34.6767 88.9874 34.6767Z" fill="white"/>
<path d="M104.668 36.6367H92.9072V40.5568H104.668V36.6367Z" fill="white"/>
<path d="M88.9874 40.5568C90.0699 40.5568 90.9474 39.6793 90.9474 38.5968C90.9474 37.5143 90.0699 36.6367 88.9874 36.6367C87.9049 36.6367 87.0273 37.5143 87.0273 38.5968C87.0273 39.6793 87.9049 40.5568 88.9874 40.5568Z" fill="white"/>
<path d="M20.5803 49.3771H16.6602C16.6602 35.3236 28.0872 23.8965 42.1408 23.8965V27.8166C30.2433 27.8166 20.5803 37.4796 20.5803 49.3771Z" fill="white"/>
<path d="M26.4611 49.3771H22.541C22.541 38.5772 31.3416 29.7766 42.1415 29.7766V33.6967C33.4977 33.6967 26.4611 40.7333 26.4611 49.3771Z" fill="white"/>
<path d="M32.341 49.3771H28.4209C28.4209 41.8113 34.5755 35.6567 42.1412 35.6567V39.5768C36.7315 39.5768 32.341 43.9674 32.341 49.3771Z" fill="white"/>
<path d="M42.141 41.5369V49.3771H34.3008C34.3008 45.0454 37.8093 41.5369 42.141 41.5369Z" fill="white"/>
<path d="M4.90039 37.6169V33.6968C16.7979 33.6968 26.4609 24.0337 26.4609 12.1362H30.381C30.381 26.1898 18.9539 37.6169 4.90039 37.6169Z" fill="white"/>
<path d="M4.90039 31.7367V27.8166C13.5442 27.8166 20.5808 20.7801 20.5808 12.1362H24.5009C24.5009 22.9361 15.7003 31.7367 4.90039 31.7367Z" fill="white"/>
<path d="M4.90039 25.8566V21.9365C10.3101 21.9365 14.7006 17.546 14.7006 12.1362H18.6207C18.6207 19.702 12.4662 25.8566 4.90039 25.8566Z" fill="white"/>
<path d="M4.90039 19.9764V12.1362H12.7406C12.7406 16.4679 9.2321 19.9764 4.90039 19.9764Z" fill="white"/>
<path d="M71.1492 80.5421H53.5087C48.6478 80.5421 44.6885 76.5828 44.6885 71.7218C44.6885 66.8609 48.6478 62.9016 53.5087 62.9016H71.1492C76.0101 62.9016 79.9694 66.8609 79.9694 71.7218C79.9694 76.5828 76.0101 80.5421 71.1492 80.5421ZM53.5087 66.8217C50.8038 66.8217 48.6086 69.017 48.6086 71.7218C48.6086 74.4267 50.8038 76.622 53.5087 76.622H71.1492C73.854 76.622 76.0493 74.4267 76.0493 71.7218C76.0493 69.017 73.854 66.8217 71.1492 66.8217H53.5087Z" fill="white"/>
<path d="M69.1891 74.6619C70.8129 74.6619 72.1292 73.3456 72.1292 71.7218C72.1292 70.0981 70.8129 68.7817 69.1891 68.7817C67.5653 68.7817 66.249 70.0981 66.249 71.7218C66.249 73.3456 67.5653 74.6619 69.1891 74.6619Z" fill="white"/>
<path d="M55.4694 74.6619C57.0931 74.6619 58.4094 73.3456 58.4094 71.7218C58.4094 70.0981 57.0931 68.7817 55.4694 68.7817C53.8456 68.7817 52.5293 70.0981 52.5293 71.7218C52.5293 73.3456 53.8456 74.6619 55.4694 74.6619Z" fill="white"/>
<path d="M48.6085 100.142C48.0793 100.142 47.5893 99.9268 47.2169 99.574C46.8444 99.2212 46.6484 98.7116 46.6484 98.1824V86.4221C46.6484 84.266 48.4125 82.502 50.5685 82.502H74.0891C76.2452 82.502 78.0092 84.266 78.0092 86.4221V88.3821H74.0891V86.4221H50.5685V96.2223H64.2889V100.142H48.6085Z" fill="white"/>
<path d="M71.796 102.103L66.249 96.5556L68.9931 93.7723L71.796 96.5556L78.6953 89.5974L81.4982 92.4003L71.796 102.103Z" fill="white"/>
<path d="M78.9899 74.6619H76.0498V68.7817H78.9899C80.6167 68.7817 81.93 70.095 81.93 71.7218C81.93 73.3487 80.6167 74.6619 78.9899 74.6619Z" fill="white"/>
<path d="M45.6686 74.6619H48.6087V68.7817H45.6686C44.0417 68.7817 42.7285 70.095 42.7285 71.7218C42.7285 73.3487 44.0417 74.6619 45.6686 74.6619Z" fill="white"/>
<path d="M98.7868 152.868C98.336 152.868 97.8852 152.711 97.5128 152.397L95.69 150.849C87.693 143.989 83.1064 134.012 83.1064 123.467C83.1064 122.683 83.5769 121.977 84.3021 121.664L98.0224 115.784C98.5124 115.568 99.0809 115.568 99.5709 115.784L113.291 121.664C114.016 121.977 114.487 122.683 114.487 123.467C114.487 134.012 109.9 143.989 101.903 150.849L100.08 152.397C99.7081 152.711 99.2573 152.868 98.8064 152.868H98.7868ZM87.0461 124.741C87.399 133.659 91.4367 142.029 98.238 147.85L98.7672 148.32L99.2965 147.85C106.098 142.009 110.136 133.659 110.488 124.741L98.7476 119.704L87.0069 124.741H87.0461Z" fill="white"/>
<path d="M96.9249 139.147L91.3779 133.62L94.122 130.817L96.9249 133.62L103.824 126.662L106.627 129.445L96.9249 139.147Z" fill="white"/>
<path d="M80.7731 171.469C80.0087 170.704 79.0874 170.312 78.0094 170.312H46.6486C45.5706 170.312 44.6494 170.704 43.8849 171.469C43.1205 172.233 42.7285 173.154 42.7285 174.232V197.753C42.7285 198.831 43.1205 199.752 43.8849 200.517C44.6494 201.281 45.5706 201.673 46.6486 201.673H78.0094C79.0874 201.673 80.0087 201.281 80.7731 200.517C81.5375 199.752 81.9295 198.831 81.9295 197.753V174.232C81.9295 173.154 81.5375 172.233 80.7731 171.469ZM78.0094 197.753H46.6486V178.152H78.0094V197.753Z" fill="white"/>
<path d="M61.3497 193.343C57.8412 193.343 54.9795 190.481 54.9795 186.973C54.9795 183.464 57.8412 180.603 61.3497 180.603C64.8581 180.603 67.7198 183.464 67.7198 186.973C67.7198 190.481 64.8581 193.343 61.3497 193.343ZM61.3497 183.543C59.468 183.543 57.9196 185.091 57.9196 186.973C57.9196 188.854 59.468 190.403 61.3497 190.403C63.2313 190.403 64.7797 188.854 64.7797 186.973C64.7797 185.091 63.2313 183.543 61.3497 183.543Z" fill="white"/>
<path d="M66.3211 189.854L64.2422 191.933L68.1645 195.855L70.2434 193.776L66.3211 189.854Z" fill="white"/>
<path d="M34.0263 142.577H13.0342V145.517H34.0263V142.577Z" fill="white"/>
<path d="M34.7907 140.127H31.8506V147.967H34.7907V140.127Z" fill="white"/>
<path d="M14.5045 140.01H11.5645V147.968H14.5045V140.01Z" fill="white"/>
<path d="M31.3611 120.527H15.6807V124.447H31.3611V120.527Z" fill="white"/>
<path d="M25.4806 122.487H21.5605V140.127H25.4806V122.487Z" fill="white"/>
<path d="M39.2008 153.848H7.84002C5.68397 153.848 3.91992 152.084 3.91992 149.928V118.567C3.91992 116.411 5.68397 114.647 7.84002 114.647H39.2008C41.3569 114.647 43.1209 116.411 43.1209 118.567V149.928C43.1209 152.084 41.3569 153.848 39.2008 153.848ZM7.84002 118.567V149.928H39.2008V118.567H7.84002Z" fill="white"/>
</g>
</svg>
