<svg width="123" height="209" viewBox="0 0 123 209" fill="none" xmlns="http://www.w3.org/2000/svg">
<g opacity="0.1">
<path d="M80.7731 8.01654C80.0087 7.25212 79.0874 6.86011 78.0094 6.86011H46.6486C45.5706 6.86011 44.6494 7.25212 43.8849 8.01654C43.1205 8.78096 42.7285 9.70218 42.7285 10.7802V34.3008C42.7285 35.3788 43.1205 36.3001 43.8849 37.0645C44.6494 37.8289 45.5706 38.2209 46.6486 38.2209H64.2891V34.3008H46.6486V14.7003H78.0094V26.4606H81.9295V10.7802C81.9295 9.70218 81.5375 8.78096 80.7731 8.01654Z" fill="white"/>
<path d="M72.2276 40.1811L66.6807 34.6342L69.4247 31.8509L72.2276 34.6342L79.127 27.676L81.9299 30.4789L72.2276 40.1811Z" fill="white"/>
<path d="M48.6084 26.4606V18.6204H50.5684V21.2272H52.5285V18.6204H54.4885V26.4606H52.5285V23.1873H50.5684V26.4606H48.6084Z" fill="white"/>
<path d="M57.7618 26.4606V20.5804H55.8018V18.6204H61.6819V20.5804H59.7219V26.4606H57.7618Z" fill="white"/>
<path d="M64.9356 26.4606V20.5804H62.9756V18.6204H68.8557V20.5804H66.8957V26.4606H64.9356Z" fill="white"/>
<path d="M70.1689 26.4606V18.6204H74.089C74.6183 18.6204 75.0691 18.8164 75.4611 19.2084C75.8531 19.6004 76.0491 20.0512 76.0491 20.5804V21.8936C76.0491 22.4229 75.8531 22.8737 75.4611 23.2657C75.0691 23.6577 74.6183 23.8537 74.089 23.8537H72.129V26.4606H70.1689ZM72.129 21.8936H74.089V20.5804H72.129V21.8936Z" fill="white"/>
<path d="M94.7499 84.0861L98.3172 74.6779H99.9637L103.531 84.0861H101.885L101.042 81.6948H97.2392L96.3964 84.0861H94.7499ZM88.5562 81.734L87.4585 80.6364L91.4178 76.6771C90.967 76.2263 90.5554 75.6971 90.183 75.1091C89.8106 74.521 89.4774 73.8546 89.1638 73.1098H90.8102C91.065 73.6194 91.3394 74.0702 91.5942 74.4426C91.849 74.8151 92.1627 75.2071 92.5351 75.5795C92.9663 75.1483 93.4171 74.5406 93.8679 73.7762C94.3187 73.0118 94.6715 72.267 94.9067 71.5614H86.2041V69.9933H91.6922V68.4253H93.2603V69.9933H98.7484V71.5614H96.4748C96.2004 72.5022 95.7887 73.4626 95.2399 74.4622C94.6911 75.4619 94.1423 76.2067 93.6131 76.7359L95.4947 78.6568L94.9067 80.264L92.5155 77.8139L88.5562 81.7536V81.734ZM97.7292 80.3228H100.552L99.1404 76.3243L97.7292 80.3228Z" fill="white"/>
<path d="M108.254 91.9265L102.707 86.3796L105.451 83.5963L108.254 86.3796L115.153 79.4214L117.956 82.2243L108.254 91.9265Z" fill="white"/>
<path d="M117.231 59.7619C116.467 58.9975 115.545 58.6055 114.467 58.6055H83.1066C82.0286 58.6055 81.1074 58.9975 80.343 59.7619C79.5785 60.5263 79.1865 61.4475 79.1865 62.5256V86.0462C79.1865 87.1242 79.5785 88.0454 80.343 88.8098C81.1074 89.5743 82.0286 89.9663 83.1066 89.9663H100.747V86.0462H83.1066V66.4457H114.467V78.206H118.388V62.5256C118.388 61.4475 117.996 60.5263 117.231 59.7619Z" fill="white"/>
<path d="M117.231 164.233C116.467 163.468 115.545 163.076 114.467 163.076H83.1066C82.0286 163.076 81.1074 163.468 80.343 164.233C79.5785 164.997 79.1865 165.918 79.1865 166.996V190.517C79.1865 191.595 79.5785 192.516 80.343 193.281C81.1074 194.045 82.0286 194.437 83.1066 194.437H114.467C115.545 194.437 116.467 194.045 117.231 193.281C117.996 192.516 118.388 191.595 118.388 190.517V166.996C118.388 165.918 117.996 164.997 117.231 164.233ZM114.467 190.517H83.1066V170.916H114.467V190.517Z" fill="white"/>
<path d="M108.588 172.876H92.9072V176.797H108.588V172.876Z" fill="white"/>
<path d="M88.9874 176.797C90.0699 176.797 90.9474 175.919 90.9474 174.837C90.9474 173.754 90.0699 172.876 88.9874 172.876C87.9049 172.876 87.0273 173.754 87.0273 174.837C87.0273 175.919 87.9049 176.797 88.9874 176.797Z" fill="white"/>
<path d="M110.548 178.757H92.9072V182.677H110.548V178.757Z" fill="white"/>
<path d="M88.9874 182.677C90.0699 182.677 90.9474 181.799 90.9474 180.717C90.9474 179.634 90.0699 178.757 88.9874 178.757C87.9049 178.757 87.0273 179.634 87.0273 180.717C87.0273 181.799 87.9049 182.677 88.9874 182.677Z" fill="white"/>
<path d="M104.668 184.637H92.9072V188.557H104.668V184.637Z" fill="white"/>
<path d="M88.9874 188.557C90.0699 188.557 90.9474 187.679 90.9474 186.597C90.9474 185.514 90.0699 184.637 88.9874 184.637C87.9049 184.637 87.0273 185.514 87.0273 186.597C87.0273 187.679 87.9049 188.557 88.9874 188.557Z" fill="white"/>
<path d="M41.9645 60.7419C41.2001 59.9775 40.2789 59.5854 39.2008 59.5854H7.84002C6.76199 59.5854 5.84077 59.9775 5.07635 60.7419C4.31193 61.5063 3.91992 62.4275 3.91992 63.5055V87.0261C3.91992 88.1042 4.31193 89.0254 5.07635 89.7898C5.84077 90.5542 6.76199 90.9462 7.84002 90.9462H39.2008C40.2789 90.9462 41.2001 90.5542 41.9645 89.7898C42.7289 89.0254 43.1209 88.1042 43.1209 87.0261V63.5055C43.1209 62.4275 42.7289 61.5063 41.9645 60.7419ZM39.2008 87.0261H7.84002V67.4256H39.2008V87.0261Z" fill="white"/>
<path d="M22.7173 84.9682C20.7377 84.3018 19.9144 81.9497 21.0513 80.2053L27.9506 69.6406C28.2839 69.131 29.0483 69.4446 28.9503 70.0326L26.853 82.4789C26.5198 84.3998 24.5598 85.5758 22.7173 84.9682Z" fill="white"/>
<path d="M23.4418 69.3857L20.5997 73.7371C16.6208 74.9915 13.7199 78.7156 13.7199 83.1061H9.7998C9.7998 75.5599 15.9152 69.4249 23.4418 69.3857Z" fill="white"/>
<path d="M37.2404 83.1062H33.3203C33.3203 81.0678 32.6931 79.1861 31.6543 77.6181L32.4775 72.7375C35.398 75.2268 37.2404 78.9509 37.2404 83.1062Z" fill="white"/>
<path d="M20.5803 197.377H16.6602C16.6602 183.324 28.0872 171.896 42.1408 171.896V175.817C30.2433 175.817 20.5803 185.48 20.5803 197.377Z" fill="white"/>
<path d="M26.4611 197.377H22.541C22.541 186.577 31.3416 177.777 42.1415 177.777V181.697C33.4977 181.697 26.4611 188.733 26.4611 197.377Z" fill="white"/>
<path d="M32.341 197.377H28.4209C28.4209 189.811 34.5755 183.657 42.1412 183.657V187.577C36.7315 187.577 32.341 191.967 32.341 197.377Z" fill="white"/>
<path d="M42.141 189.537V197.377H34.3008C34.3008 193.045 37.8093 189.537 42.141 189.537Z" fill="white"/>
<path d="M4.90039 185.617V181.697C16.7979 181.697 26.4609 172.034 26.4609 160.136H30.381C30.381 174.19 18.9539 185.617 4.90039 185.617Z" fill="white"/>
<path d="M4.90039 179.737V175.817C13.5442 175.817 20.5808 168.78 20.5808 160.136H24.5009C24.5009 170.936 15.7003 179.737 4.90039 179.737Z" fill="white"/>
<path d="M4.90039 173.857V169.936C10.3101 169.936 14.7006 165.546 14.7006 160.136H18.6207C18.6207 167.702 12.4662 173.857 4.90039 173.857Z" fill="white"/>
<path d="M4.90039 167.976V160.136H12.7406C12.7406 164.468 9.2321 167.976 4.90039 167.976Z" fill="white"/>
<path d="M70.1692 119.171H46.6486C44.4926 119.171 42.7285 120.935 42.7285 123.091V140.731C42.7285 142.888 44.4926 144.652 46.6486 144.652H60.369V140.731H46.6486V127.011H70.1692V128.971H74.0893V123.091C74.0893 120.935 72.3253 119.171 70.1692 119.171Z" fill="white"/>
<path d="M78.01 107.411H54.4894C52.3334 107.411 50.5693 109.175 50.5693 111.331V117.211H54.4894V115.251H78.01V128.971H76.05V132.891H78.01C80.1661 132.891 81.9301 131.127 81.9301 128.971V111.331C81.9301 109.175 80.1661 107.411 78.01 107.411Z" fill="white"/>
<path d="M72.1294 146.612L69.3461 143.867L72.4234 140.731H62.3291V136.811H72.4234L69.3461 133.714L72.1294 130.931L79.9696 138.771L72.1294 146.612Z" fill="white"/>
</g>
</svg>
