<svg width="48" height="48" viewBox="0 0 48 48" fill="none" xmlns="http://www.w3.org/2000/svg">
<path d="M40 0H8C3.58172 0 0 3.58172 0 8V40C0 44.4183 3.58172 48 8 48H40C44.4183 48 48 44.4183 48 40V8C48 3.58172 44.4183 0 40 0Z" fill="#F8F9F9"/>
<path d="M32.249 17.025L24.352 14.063L23.649 15.936L26.484 17H16C15.4696 17 14.9609 17.2107 14.5858 17.5858C14.2107 17.9608 14 18.4696 14 19V31C14 31.5304 14.2107 32.0391 14.5858 32.4142C14.9609 32.7893 15.4696 33 16 33H32C32.5304 33 33.0391 32.7893 33.4142 32.4142C33.7893 32.0391 34 31.5304 34 31V19C34 17.98 33.234 17.149 32.249 17.025ZM22 29H18V27H22V29ZM28.5 30C27.837 30 27.2011 29.7366 26.7322 29.2678C26.2634 28.7989 26 28.163 26 27.5C26 26.8369 26.2634 26.2011 26.7322 25.7322C27.2011 25.2634 27.837 25 28.5 25C29.163 25 29.7989 25.2634 30.2678 25.7322C30.7366 26.2011 31 26.8369 31 27.5C31 28.163 30.7366 28.7989 30.2678 29.2678C29.7989 29.7366 29.163 30 28.5 30ZM32 23H16V19H32V23Z" fill="#222222"/>
</svg>
