<svg width="48" height="48" viewBox="0 0 48 48" fill="none" xmlns="http://www.w3.org/2000/svg">
<rect width="48" height="48" rx="8" fill="#F8F9F9"/>
<path d="M20.4659 23.2931C21.5989 22.1601 23.5749 22.1601 24.7079 23.2931L25.4149 24.0001L26.8289 22.5861L26.1219 21.8791C25.1789 20.9351 23.9229 20.4141 22.5869 20.4141C21.2509 20.4141 19.9949 20.9351 19.0519 21.8791L16.9299 24.0001C15.9942 24.9388 15.4688 26.2101 15.4688 27.5356C15.4688 28.861 15.9942 30.1323 16.9299 31.0711C17.3938 31.5356 17.9448 31.9039 18.5515 32.1548C19.1581 32.4057 19.8084 32.5342 20.4649 32.5331C21.1215 32.5344 21.772 32.406 22.3788 32.1551C22.9857 31.9042 23.5369 31.5358 24.0009 31.0711L24.7079 30.3641L23.2939 28.9501L22.5869 29.6571C22.0233 30.2181 21.2605 30.533 20.4654 30.533C19.6702 30.533 18.9074 30.2181 18.3439 29.6571C17.7824 29.0938 17.4671 28.3309 17.4671 27.5356C17.4671 26.7402 17.7824 25.9773 18.3439 25.4141L20.4659 23.2931Z" fill="#222222"/>
<path d="M23.9999 16.9292L23.2929 17.6362L24.7069 19.0502L25.4139 18.3432C25.9774 17.7822 26.7402 17.4673 27.5354 17.4673C28.3305 17.4673 29.0933 17.7822 29.6569 18.3432C30.2184 18.9065 30.5337 19.6694 30.5337 20.4647C30.5337 21.2601 30.2184 22.023 29.6569 22.5862L27.5349 24.7072C26.4019 25.8402 24.4259 25.8402 23.2929 24.7072L22.5859 24.0002L21.1719 25.4142L21.8789 26.1212C22.8219 27.0652 24.0779 27.5862 25.4139 27.5862C26.7499 27.5862 28.0059 27.0652 28.9489 26.1212L31.0709 24.0002C32.0066 23.0615 32.532 21.7902 32.532 20.4647C32.532 19.1393 32.0066 17.868 31.0709 16.9292C30.1324 15.993 28.861 15.4673 27.5354 15.4673C26.2098 15.4673 24.9383 15.993 23.9999 16.9292V16.9292Z" fill="black"/>
</svg>
