<svg width="48" height="48" viewBox="0 0 48 48" fill="none" xmlns="http://www.w3.org/2000/svg">
<path d="M40 0H8C3.58172 0 0 3.58172 0 8V40C0 44.4183 3.58172 48 8 48H40C44.4183 48 48 44.4183 48 40V8C48 3.58172 44.4183 0 40 0Z" fill="#F8F9F9"/>
<path d="M31 22V19C31 17.897 30.103 17 29 17H26C26 15.346 24.654 14 23 14C21.346 14 20 15.346 20 17H17C15.897 17 15 17.897 15 19V23H16C16.5304 23 17.0391 23.2107 17.4142 23.5858C17.7893 23.9609 18 24.4696 18 25C18 25.5304 17.7893 26.0391 17.4142 26.4142C17.0391 26.7893 16.5304 27 16 27H15V31C15 32.103 15.897 33 17 33H21V32C21 31.4696 21.2107 30.9609 21.5858 30.5858C21.9609 30.2107 22.4696 30 23 30C23.5304 30 24.0391 30.2107 24.4142 30.5858C24.7893 30.9609 25 31.4696 25 32V33H29C30.103 33 31 32.103 31 31V28C32.654 28 34 26.654 34 25C34 23.346 32.654 22 31 22Z" fill="#222222"/>
</svg>
