<svg width="48" height="48" viewBox="0 0 48 48" fill="none" xmlns="http://www.w3.org/2000/svg">
<rect width="48" height="48" rx="8" fill="#F8F9F9"/>
<path d="M33 22.975V20C33 19.4696 32.7893 18.9609 32.4142 18.5858C32.0391 18.2107 31.5304 18 31 18H25V16.688C25.305 16.414 25.5 16.02 25.5 15.578C25.5 15.1802 25.342 14.7986 25.0607 14.5173C24.7794 14.236 24.3978 14.078 24 14.078C23.6022 14.078 23.2206 14.236 22.9393 14.5173C22.658 14.7986 22.5 15.1802 22.5 15.578C22.5 16.02 22.695 16.414 23 16.688V18H17C16.4696 18 15.9609 18.2107 15.5858 18.5858C15.2107 18.9609 15 19.4696 15 20V22.998L14.928 23.003C14.6759 23.021 14.44 23.1338 14.2677 23.3188C14.0955 23.5038 13.9999 23.7473 14 24V26C14 26.2652 14.1054 26.5196 14.2929 26.7071C14.4804 26.8946 14.7348 27 15 27V32C15 32.5304 15.2107 33.0391 15.5858 33.4142C15.9609 33.7893 16.4696 34 17 34H31C31.5304 34 32.0391 33.7893 32.4142 33.4142C32.7893 33.0391 33 32.5304 33 32V27C33.2652 27 33.5196 26.8946 33.7071 26.7071C33.8946 26.5196 34 26.2652 34 26V24.062C34.0116 23.9068 33.9869 23.751 33.928 23.607C33.726 23.119 33.293 23.002 33 22.975ZM19 24C19 22.896 19.672 22 20.5 22C21.328 22 22 22.896 22 24C22 25.104 21.328 26 20.5 26C19.672 26 19 25.104 19 24ZM27.998 30C26.997 29.997 20.001 30 20 30V28C20 28 27.001 27.998 28.002 28L27.998 30ZM27.5 26C26.672 26 26 25.104 26 24C26 22.896 26.672 22 27.5 22C28.328 22 29 22.896 29 24C29 25.104 28.328 26 27.5 26Z" fill="#222222"/>
</svg>
