<svg width="48" height="48" viewBox="0 0 48 48" fill="none" xmlns="http://www.w3.org/2000/svg">
<rect width="48" height="48" rx="8" fill="#F8F9F9"/>
<path d="M32 15H16C15.4696 15 14.9609 15.2107 14.5858 15.5858C14.2107 15.9609 14 16.4696 14 17V31C14 31.5304 14.2107 32.0391 14.5858 32.4142C14.9609 32.7893 15.4696 33 16 33H32C32.5304 33 33.0391 32.7893 33.4142 32.4142C33.7893 32.0391 34 31.5304 34 31V17C34 16.4696 33.7893 15.9609 33.4142 15.5858C33.0391 15.2107 32.5304 15 32 15ZM23 29H17V27H23V29ZM31 25H17V23H31V25ZM31 21H17V19H31V21Z" fill="#222222"/>
</svg>
